<svg xmlns="http://www.w3.org/2000/svg" xmlns:xlink="http://www.w3.org/1999/xlink" width="100px" height="100px" viewBox="0 0 100 100">
    <g transform="translate(50 50) scale(-1 1) rotate(0) translate(-50 -50)">
        <svg xmlns:dc="http://purl.org/dc/elements/1.1/" xmlns:cc="http://creativecommons.org/ns#" xmlns:rdf="http://www.w3.org/1999/02/22-rdf-syntax-ns#" xmlns:svg="http://www.w3.org/2000/svg" xmlns="http://www.w3.org/2000/svg" xmlns:sodipodi="http://sodipodi.sourceforge.net/DTD/sodipodi-0.dtd" xmlns:inkscape="http://www.inkscape.org/namespaces/inkscape" viewBox="0 0 12.7 12.7" version="1.1" x="0px" y="0px">
            <g transform="translate(0,-284.29998)">
                <path style="fill: #0000ff" d="m 8.1577,296.20113 a 0.28342081,0.28342081 0 0 1 -0.3468,0.26251 l -4.6471,-1.07176 a 0.28342081,0.28342081 0 0 1 -0.2171,-0.31432 25.249978,25.249978 0 0 0 -0.3668,-8.91225 0.8502625,0.8502625 0 0 1 0.5628,-0.99126 6.8032635,6.8032635 0 0 1 2.7913,-0.31362 1.4171042,1.4171042 0 0 1 0.871,0.41373 2.68995,2.68995 0 0 1 0.7625,2.18413 0.1417104,0.1417104 0 0 0 0.035,0.10991 7.3548324,7.3548324 0 0 0 2.2972,1.7319 0.42513128,0.42513128 0 0 1 0.2134,0.53274 1.789212,1.789212 0 0 1 -1.0142,1.03396 2.5463072,2.5463072 0 0 1 0.4237,0.42913 0.42513128,0.42513128 0 0 1 0.038,0.46342 2.2614229,2.2614229 0 0 0 -0.2712,0.96326 0.56684169,0.56684169 0 0 0 0.088,0.33392 1.2931294,1.2931294 0 0 0 0.3243,0.43193 0.28342081,0.28342081 0 0 1 0.047,0.0532 1.1423616,1.1423616 0 0 1 0.2002,0.59784 0.8502625,0.8502625 0 0 1 -0.8374,0.88766 5.0446716,5.0446716 0 0 1 -3.1746,-1.06757 0.05668416,0.05668416 0 0 0 -0.08,0.0791 4.5310229,4.5310229 0 0 0 2.3273,1.6017 z" fill="#000000" stroke="none"></path>
            </g>
        </svg>
    </g>
</svg>
